<svg version="1.2" xmlns="http://www.w3.org/2000/svg" viewBox="0 0 63 61" width="63" height="61"><style>.s0{fill:#95e1d3}</style><path class="s0" d="m60 36h-0.9h-1.1v5q0 0.3-0.1 0.6q0 0.2-0.1 0.4q0 0.1 0 0.2q-0.1 0.1-0.2 0.3q-0.1 0.1-0.1 0.2q-0.2 0.2-0.3 0.4q-0.1 0-0.1 0c-0.5 0.6-1.2 0.9-2.1 0.9q0 0 0 0c-0.8 0-1.6-0.3-2.1-0.9l-7.1-7.1h-0.4h-27.4c-1.7 0-3-1.3-3-3v-30c0-1.7 1.3-3 3-3h42c1.7 0 3 1.3 3 3v30c0 1.7-1.3 3-3 3zm-15.5 3l6.3 6.3c1.1 1.1 2.6 1.7 4.2 1.7v2c0 1.7-1.3 3-3 3h-21.1h-6.9h-3h-0.8l-8.1 8.1c-0.5 0.6-1.3 0.9-2.1 0.9q0 0 0 0c-0.9 0-1.6-0.3-2.1-0.9q0 0-0.1 0q-0.1-0.2-0.3-0.4q0-0.1-0.1-0.2q-0.1-0.2-0.2-0.3q0-0.1 0-0.2q-0.1-0.2-0.1-0.4q-0.1-0.3-0.1-0.6v-6h-0.5h-3.5c-1.7 0-3-1.3-3-3v-34q0 0 0 0c0-1.7 1.3-3 3-3h9v21c0 3.3 2.7 6 6 6z" /></svg>